<?xml version="1.0" encoding="UTF-8"?> <svg xmlns="http://www.w3.org/2000/svg" width="76" height="78" viewBox="0 0 76 78" fill="none"><ellipse cx="38" cy="39.0957" rx="38" ry="38.5" fill="#2A1840"></ellipse><path fill-rule="evenodd" clip-rule="evenodd" d="M54.9987 28.4878L54.9552 27.3131C54.9552 26.182 53.9981 25.2249 52.867 25.2249H49.4736C48.3425 25.2249 47.3854 26.182 47.3854 27.3131V28.4443C46.2978 28.4008 45.8627 28.2267 45.5147 27.6612L44.6446 26.1385C44.5576 26.008 44.5141 25.8775 44.427 25.747C44.0355 25.0074 43.5135 24.0503 42.2953 24.0503H33.5074C32.2892 24.0503 31.7672 25.0074 31.3756 25.747C31.2886 25.8775 31.2451 26.008 31.1581 26.1385L30.288 27.6612C29.8965 28.3573 29.3309 28.4878 27.7647 28.4878H20.804C19.4118 28.4878 18.3242 29.6189 18.3242 30.9675V51.8498C18.3242 53.242 19.4553 54.3296 20.804 54.3296H54.9552C56.3473 54.3296 57.435 53.1985 57.435 51.8498V30.9675C57.4785 29.6189 56.3473 28.4878 54.9987 28.4878ZM37.9013 49.8921C32.9418 49.8921 28.9394 45.8462 28.9394 40.9301C28.9394 35.9706 32.9853 31.9246 37.9013 31.9246C42.8174 31.9246 46.8633 35.9706 46.8633 40.9301C46.8633 45.8462 42.8609 49.8921 37.9013 49.8921ZM20.804 29.7929H27.7212C29.1134 29.7929 30.549 29.7929 31.3756 28.3573L32.2457 26.8346C32.3327 26.7041 32.4197 26.5301 32.5068 26.3995C32.8983 25.66 33.0723 25.3989 33.5074 25.3989H42.2953C42.6869 25.3989 42.8609 25.66 43.2959 26.3995C43.3829 26.5301 43.4699 26.7041 43.557 26.8346L44.427 28.3573C45.2971 29.7929 46.6893 29.7929 48.0814 29.7929H54.9987C55.6513 29.7929 56.1733 30.315 56.1733 30.9675V40.1905H48.1685C47.8204 34.883 43.3394 30.6195 37.9013 30.6195C32.4633 30.6195 27.9823 34.883 27.6342 40.234H19.6294V31.011C19.6294 30.3585 20.1514 29.7929 20.804 29.7929Z" fill="#FBFAFF"></path><path fill-rule="evenodd" clip-rule="evenodd" d="M41.0772 36.0141C39.9461 35.7096 38.815 36.1011 37.9014 37.0147C36.2917 35.318 34.2905 35.7966 33.1158 36.9277C31.8542 38.1458 31.3756 40.3646 32.9853 42.0613L37.0748 46.2812C37.2923 46.5422 37.5968 46.6728 37.9449 46.6728C38.2929 46.6728 38.5974 46.5422 38.815 46.2812L42.9044 42.0613C43.818 41.1042 44.166 39.8425 43.818 38.6244C43.3829 37.3628 42.3388 36.3186 41.0772 36.0141Z" fill="#FBFAFF"></path><path fill-rule="evenodd" clip-rule="evenodd" d="M51.6926 36.6664C52.9977 36.6664 54.0853 35.5788 54.0853 34.2736C54.0853 32.9685 52.9977 31.8809 51.6926 31.8809C50.3874 31.8809 49.2998 32.9685 49.2998 34.2736C49.2998 35.5788 50.3874 36.6664 51.6926 36.6664Z" fill="#FBFAFF"></path><path fill-rule="evenodd" clip-rule="evenodd" d="M41.2512 29.0532C41.5992 29.0532 41.9038 28.7487 41.9038 28.4006C41.9038 28.0526 41.5992 27.748 41.2512 27.748C40.9032 27.748 40.5986 28.0526 40.5986 28.4006C40.5986 28.7487 40.8597 29.0532 41.2512 29.0532Z" fill="#FBFAFF"></path><path fill-rule="evenodd" clip-rule="evenodd" d="M34.552 29.0532C34.9 29.0532 35.2046 28.7487 35.2046 28.4006C35.2046 28.0526 34.9 27.748 34.552 27.748C34.2039 27.748 33.8994 28.0526 33.8994 28.4006C33.8994 28.7487 34.2039 29.0532 34.552 29.0532Z" fill="#FBFAFF"></path><path fill-rule="evenodd" clip-rule="evenodd" d="M37.9016 29.0532C38.2496 29.0532 38.5542 28.7487 38.5542 28.4006C38.5542 28.0526 38.2496 27.748 37.9016 27.748C37.5536 27.748 37.249 28.0526 37.249 28.4006C37.249 28.7487 37.5536 29.0532 37.9016 29.0532Z" fill="#FBFAFF"></path></svg> 