<?xml version="1.0" encoding="UTF-8"?> <svg xmlns="http://www.w3.org/2000/svg" width="76" height="77" viewBox="0 0 76 77" fill="none"><ellipse cx="38" cy="38.5" rx="38" ry="38.5" fill="#2A1840"></ellipse><path d="M55.4 47.3089L60.9999 41.7093L55.4 36.1094L56.3022 35.2072C57.8633 33.6461 57.8633 31.1062 56.3026 29.5451C55.5462 28.7891 54.5406 28.3726 53.4712 28.3726C52.4021 28.3726 51.3965 28.7891 50.6405 29.5451L49.7382 30.4473L44.1383 24.8474L42.4859 26.5002V29.1122C45.409 29.8088 47.5894 32.4424 47.5894 35.5755C47.5894 38.709 45.409 41.3427 42.4859 42.0389V50.1382H37.6382L36.6718 51.1047L44.1383 58.5709L49.7382 52.971L50.5159 53.749C52.077 55.31 54.6169 55.31 56.1779 53.749C57.739 52.1879 57.739 49.648 56.1779 48.0869L55.4 47.3089Z" fill="#FBFAFF"></path><path d="M39.8461 47.4988V39.5794H40.9458C43.1537 39.5794 44.9496 37.7834 44.9496 35.5755C44.9496 33.368 43.1537 31.5721 40.9458 31.5721H39.8461V23.6527H31.9267V22.3769C31.9267 20.169 30.1308 18.373 27.9229 18.373C25.7153 18.373 23.9194 20.169 23.9194 22.3769V23.6527H16V31.5721H17.1C19.037 31.5721 20.6568 32.9546 21.0249 34.7849C21.1845 35.008 21.2796 35.2806 21.2796 35.5755C21.2796 35.8705 21.1845 36.1431 21.0249 36.3666C20.6568 38.1965 19.037 39.5794 17.1 39.5794H16V47.4988H23.9194V46.2226C23.9194 44.0151 25.7153 42.2192 27.9229 42.2192C30.1308 42.2192 31.9267 44.0151 31.9267 46.2226V47.4988H39.8461Z" fill="#FBFAFF"></path></svg> 