<?xml version="1.0" encoding="UTF-8"?> <svg xmlns="http://www.w3.org/2000/svg" width="76" height="78" viewBox="0 0 76 78" fill="none"><ellipse cx="38" cy="39.0957" rx="38" ry="38.5" fill="#566048"></ellipse><g clip-path="url(#clip0_188_4)"><path d="M56.7573 33.7794C55.3008 32.5243 53.0723 32.6738 51.8078 34.2193L51.0479 35.1408L56.4342 39.7733L57.1598 38.8551C58.4079 37.3336 58.25 35.0613 56.7573 33.7794Z" fill="#F3EEE7"></path><path d="M41.5445 46.666L41.1437 47.1522C40.7958 47.5792 40.5452 48.0895 40.4193 48.6303L39.3298 53.3035C39.2269 53.7457 39.3768 54.2103 39.7166 54.5024C40.0474 54.7873 40.514 54.87 40.9355 54.6854L45.2373 52.7733C45.7351 52.5516 46.1814 52.2103 46.5293 51.7869L46.9316 51.299L41.5445 46.666Z" fill="#F3EEE7"></path><path d="M49.536 36.9751L43.0576 44.8319L48.4443 49.4649L54.9223 41.6075L49.536 36.9751Z" fill="#F3EEE7"></path><path d="M47.3764 23.9211L42.9247 19.5856C42.5039 19.1766 41.9861 18.9358 41.4404 18.7793V25.8026H48.3976C48.2522 25.0891 47.8975 24.4282 47.3764 23.9211Z" fill="#F3EEE7"></path><path d="M38.14 48.0717C38.3494 47.1732 38.7671 46.3228 39.3461 45.6119L48.4717 34.544V28.2051H40.2686C39.6208 28.2051 39.0967 27.6678 39.0967 27.0039V18.5957H21.5186C19.58 18.5957 18.0029 20.2122 18.0029 22.1992V55.9922C18.0029 57.9792 19.58 59.5957 21.5186 59.5957H44.9561C46.8946 59.5957 48.4717 57.9792 48.4717 55.9922V53.1527L48.3195 53.3373C47.7439 54.04 47.0011 54.6065 46.1737 54.9761L41.8685 56.8893C40.655 57.4264 39.2504 57.2361 38.211 56.3438C37.1844 55.4605 36.7393 54.0822 37.0505 52.745L38.14 48.0717ZM23.8623 25.8027H35.5811C36.2288 25.8027 36.7529 26.34 36.7529 27.0039C36.7529 27.6678 36.2288 28.2051 35.5811 28.2051H23.8623C23.2146 28.2051 22.6904 27.6678 22.6904 27.0039C22.6904 26.34 23.2146 25.8027 23.8623 25.8027ZM23.8623 33.0898H42.6123C43.26 33.0898 43.7842 33.6271 43.7842 34.291C43.7842 34.9549 43.26 35.4922 42.6123 35.4922H23.8623C23.2146 35.4922 22.6904 34.9549 22.6904 34.291C22.6904 33.6271 23.2146 33.0898 23.8623 33.0898ZM33.2373 49.9062H23.8623C23.2146 49.9062 22.6904 49.369 22.6904 48.7051C22.6904 48.0412 23.2146 47.5039 23.8623 47.5039H33.2373C33.885 47.5039 34.4092 48.0412 34.4092 48.7051C34.4092 49.369 33.885 49.9062 33.2373 49.9062ZM23.8623 42.6992C23.2146 42.6992 22.6904 42.162 22.6904 41.498C22.6904 40.8341 23.2146 40.2969 23.8623 40.2969H37.9248C38.5725 40.2969 39.0967 40.8341 39.0967 41.498C39.0967 42.162 38.5725 42.6992 37.9248 42.6992H23.8623Z" fill="#F3EEE7"></path></g><defs><clipPath id="clip0_188_4"><rect width="40" height="41" fill="white" transform="translate(18 18.5957)"></rect></clipPath></defs></svg> 