<?xml version="1.0" encoding="UTF-8"?> <svg xmlns="http://www.w3.org/2000/svg" width="247" height="103" viewBox="0 0 247 103" fill="none"><path d="M12 51L0 0H13.5L19 23.5L25.5 0H39L46.5 23.5L52.5 0H65.5L39 102H25.5L39 51L32 27L25.5 51H12Z" fill="#566048"></path><path d="M48.5 87L55.5 63.5L59.5 74.5L66 50.5H80L92.5 102H78.5L74 78H71.5L66 102H52.5L48.5 87Z" fill="#566048"></path><path d="M107.5 102H97.5L107.5 63H118.5L128.5 102H118.5V97.5H107.5V102Z" fill="#566048"></path><path d="M70.5 43V7.5H94.5V17H79V22L89.5 21.5V30H80V35H94.5V43H70.5Z" fill="#566048"></path><path d="M99 44V7H117C126.2 11 128.833 18.3333 129 21.5C131 37.5 120.833 43.1667 115.5 44H99Z" fill="#566048"></path><path d="M133 44V7H151C160.2 11 162.833 18.3333 163 21.5C165 37.5 154.833 43.1667 149.5 44H133Z" fill="#566048"></path><path d="M167.5 43.5V8H177V43.5H167.5Z" fill="#566048"></path><path d="M192 44H182V7H192L201.5 24V7H211V44H201.5L192 25V44Z" fill="#566048"></path><path d="M244.5 20H235C231.8 14.4 227.667 18.3333 226 21C222.4 31 227.5 34.1667 230.5 34.5C235.3 35.3 235.5 32.8333 235 31.5H232V23.5H246.5V33.5C246.9 35.5 244 38.6667 242.5 40C228.5 50 219.334 41.1667 216.5 35.5C211.3 17.1 220.667 9.16667 226 7.5C241.6 4.3 244.834 14.5 244.5 20Z" fill="#566048"></path><path d="M125.5 73V63.5H151.5V73H144V102H132.5V73H125.5Z" fill="#566048"></path><path d="M155.5 102V63.5H180.5V73H165.5V78H175.5V87.5H165.5V92H180.5V102H155.5Z" fill="#566048"></path><path d="M183.5 88.5H193C194.201 91.3 197.167 92.6667 198.5 93C204.9 95 204.5 91.1667 203.5 89C201.9 87 197.167 86.5 195 86.5C185 84.9 182.834 78.5 183 75.5C181.8 66.7 190.5 62.8333 195 62C211 61.2 214.333 71 214 76H204C202.001 70.4 197.834 71.3333 196 72.5C193.2 75.7 197.167 76.8333 199.5 77C203.9 77 209 80 211 81.5C214.6 85.1 214.5 90.6667 214 93C211.6 98.2 206.334 100.833 204 101.5C187.2 105.5 183.334 94.5 183.5 88.5Z" fill="#566048"></path><path d="M109 34.2027V15.2027C118.2 13.6027 120.167 21.8693 120 26.2027C119.2 33.0027 112.333 34.3693 109 34.2027Z" fill="#F7F2EC"></path><path d="M143 34.2027V15.2027C152.2 13.6027 154.167 21.8693 154 26.2027C153.2 33.0027 146.333 34.3693 143 34.2027Z" fill="#F7F2EC"></path><path d="M115 87.5H110L113 80L115 87.5Z" fill="#F7F2EC"></path></svg> 