<?xml version="1.0" encoding="UTF-8"?> <svg xmlns="http://www.w3.org/2000/svg" width="76" height="78" viewBox="0 0 76 78" fill="none"><ellipse cx="38" cy="39.0957" rx="38" ry="38.5" fill="#566048"></ellipse><g clip-path="url(#clip0_188_6)"><path d="M34.3513 27.1214C32.2387 25.5343 30.0713 23.5783 28.5286 21.2064L27.1781 19.1302C26.892 18.6903 26.3588 18.4944 25.8632 18.6469C25.3688 18.8006 25.0312 19.2674 25.0312 19.7965V38.6424C24.3391 38.2287 23.5451 37.9742 22.6875 37.9742C20.1023 37.9742 18 40.1291 18 42.7789C18 45.4288 20.1023 47.5835 22.6875 47.5835C25.2727 47.5835 27.375 45.4287 27.375 42.7789V23.7404C29.0309 25.8859 31.1023 27.6587 32.9655 29.0592C33.8809 29.7466 34.4062 30.8071 34.4062 31.9683C34.4062 33.9554 32.8292 35.5718 30.8906 35.5718C30.2429 35.5718 29.7188 36.1091 29.7188 36.773C29.7188 37.4369 30.2429 37.9742 30.8906 37.9742C34.1213 37.9742 36.75 35.2798 36.75 31.9683C36.75 30.0621 35.8539 28.251 34.3513 27.1214Z" fill="#F3EEE7"></path><path d="M56.5066 28.411L39.9441 33.2157C39.4405 33.3635 39.0938 33.835 39.0938 34.3711V50.6545C38.4016 50.2408 37.6076 49.9864 36.75 49.9864C34.1648 49.9864 32.0625 52.1412 32.0625 54.7911C32.0625 57.4409 34.1648 59.5957 36.75 59.5957C39.3352 59.5957 41.4375 57.4409 41.4375 54.7911C41.4375 54.5172 41.4375 40.0823 41.4375 40.0823L55.6562 35.964V45.8499C54.9641 45.4361 54.1701 45.1817 53.3125 45.1817C50.7273 45.1817 48.625 47.3365 48.625 49.9864C48.625 52.6362 50.7273 54.7911 53.3125 54.7911C55.8977 54.7911 58 52.6362 58 49.9864C58 49.7125 58 29.5664 58 29.5664C58 28.772 57.2586 28.1933 56.5066 28.411Z" fill="#F3EEE7"></path></g><defs><clipPath id="clip0_188_6"><rect width="40" height="41" fill="white" transform="translate(18 18.5957)"></rect></clipPath></defs></svg> 