<?xml version="1.0" encoding="UTF-8"?> <svg xmlns="http://www.w3.org/2000/svg" width="76" height="78" viewBox="0 0 76 78" fill="none"><ellipse cx="38" cy="39.0957" rx="38" ry="38.5" fill="#566048"></ellipse><g clip-path="url(#clip0_188_5)"><path d="M35.6562 28.2051C38.2451 28.2051 40.3438 26.0539 40.3438 23.4004C40.3438 20.7468 38.2451 18.5957 35.6562 18.5957C33.0674 18.5957 30.9688 20.7468 30.9688 23.4004C30.9688 26.0539 33.0674 28.2051 35.6562 28.2051Z" fill="#F3EEE7"></path><path d="M27.4673 58.58C27.5564 59.1646 28.0477 59.5957 28.6251 59.5957H47.3751C47.9524 59.5957 48.4438 59.1646 48.5329 58.58L50.3555 46.623H25.6445L27.4673 58.58Z" fill="#F3EEE7"></path><path d="M52.9553 38.6152H23.0447C22.2661 38.6152 21.704 39.3791 21.9179 40.1464L22.8107 43.3495C22.9544 43.8652 23.4143 44.2207 23.9375 44.2207H52.0625C52.5857 44.2207 53.0455 43.8652 53.1893 43.3495L54.0821 40.1464C54.296 39.3791 53.7339 38.6152 52.9553 38.6152Z" fill="#F3EEE7"></path><path d="M47.375 28.4053C47.7527 28.4053 48.1134 28.3312 48.4449 28.1978L50.1094 29.9038V36.2129H52.4531V29.4062C52.4531 29.0876 52.3297 28.7822 52.1098 28.5569L50.1022 26.4991C50.2324 26.1592 50.3047 25.7896 50.3047 25.4023C50.3047 23.7438 48.993 22.3994 47.375 22.3994C45.757 22.3994 44.4453 23.7438 44.4453 25.4023C44.4453 27.0608 45.757 28.4053 47.375 28.4053Z" fill="#F3EEE7"></path><path d="M44.6406 35.8125C44.6406 32.7189 42.8295 30.0509 40.2373 28.8633C39.0059 29.9497 37.4046 30.6074 35.6562 30.6074C33.9079 30.6074 32.3066 29.9497 31.0752 28.8633C28.4829 30.0509 26.6719 32.7189 26.6719 35.8125V36.2129H44.6406V35.8125Z" fill="#F3EEE7"></path></g><defs><clipPath id="clip0_188_5"><rect width="40" height="41" fill="white" transform="translate(18 18.5957)"></rect></clipPath></defs></svg> 