<?xml version="1.0" encoding="UTF-8"?> <svg xmlns="http://www.w3.org/2000/svg" width="76" height="77" viewBox="0 0 76 77" fill="none"><ellipse cx="38" cy="38.5" rx="38" ry="38.5" fill="#566048"></ellipse><path d="M48.8511 22.0655H52.8972L48.8511 18.0749V22.0655Z" fill="#F3EEE7"></path><path d="M47.3042 22.8357V17H23V52.7054L37.6095 60H54V23.6036H48.0765C47.8717 23.6036 47.6752 23.5227 47.5304 23.3787C47.3856 23.2347 47.3042 23.0394 47.3042 22.8357ZM26.9155 40.531H37.8768C38.0816 40.531 38.278 40.6119 38.4229 40.7559C38.5677 40.8999 38.6491 41.0952 38.6491 41.2988C38.6491 41.5025 38.5677 41.6978 38.4229 41.8418C38.278 41.9858 38.0816 42.0667 37.8768 42.0667H26.9155C26.7107 42.0667 26.5143 41.9858 26.3694 41.8418C26.2246 41.6978 26.1432 41.5025 26.1432 41.2988C26.1432 41.0952 26.2246 40.8999 26.3694 40.7559C26.5143 40.6119 26.7107 40.531 26.9155 40.531ZM35.0378 50.2904H26.9155C26.7107 50.2904 26.5143 50.2095 26.3694 50.0655C26.2246 49.9215 26.1432 49.7262 26.1432 49.5226C26.1432 49.3189 26.2246 49.1236 26.3694 48.9796C26.5143 48.8356 26.7107 48.7547 26.9155 48.7547H35.0378C35.2426 48.7547 35.4391 48.8356 35.5839 48.9796C35.7287 49.1236 35.8101 49.3189 35.8101 49.5226C35.8101 49.7262 35.7287 49.9215 35.5839 50.0655C35.4391 50.2095 35.2426 50.2904 35.0378 50.2904ZM42.6434 50.2904H38.5C38.2952 50.2904 38.0987 50.2095 37.9539 50.0655C37.8091 49.9215 37.7277 49.7262 37.7277 49.5226C37.7277 49.3189 37.8091 49.1236 37.9539 48.9796C38.0987 48.8356 38.2952 48.7547 38.5 48.7547H42.6434C42.8482 48.7547 43.0446 48.8356 43.1895 48.9796C43.3343 49.1236 43.4157 49.3189 43.4157 49.5226C43.4157 49.7262 43.3343 49.9215 43.1895 50.0655C43.0446 50.2095 42.8482 50.2904 42.6434 50.2904ZM48.0765 45.9306H26.9155C26.7107 45.9306 26.5143 45.8497 26.3694 45.7057C26.2246 45.5617 26.1432 45.3663 26.1432 45.1627C26.1432 44.959 26.2246 44.7637 26.3694 44.6197C26.5143 44.4757 26.7107 44.3948 26.9155 44.3948H48.0765C48.2813 44.3948 48.4777 44.4757 48.6226 44.6197C48.7674 44.7637 48.8488 44.959 48.8488 45.1627C48.8488 45.3663 48.7674 45.5617 48.6226 45.7057C48.4777 45.8497 48.2813 45.9306 48.0765 45.9306ZM49.2658 30.3185C49.5608 32.0538 48.9152 33.707 47.3474 35.2328L46.7798 34.7106L47.3204 35.2581C45.7563 36.688 43.6913 37.4522 41.5676 37.3874C41.1922 37.3874 40.8725 37.3674 40.6238 37.3444C40.5118 37.3335 40.4036 37.2987 40.3064 37.2422C39.389 36.7044 38.5624 36.0266 37.8567 35.2335C37.4852 35.5234 37.0946 35.7881 36.6874 36.026C36.5896 36.0836 36.4801 36.119 36.3669 36.1296C36.1213 36.1527 35.8024 36.1719 35.4301 36.1719C33.3049 36.2376 31.2383 35.473 29.6734 34.0418C28.0802 32.5023 27.4338 30.8475 27.728 29.1045C27.9844 27.6133 29.4379 26.652 30.7639 26.3594C31.6876 26.1636 32.6508 26.2866 33.4947 26.708C33.9325 25.8756 34.6443 25.2177 35.5112 24.8444C36.7585 24.3115 38.5031 24.247 39.5851 25.3151C39.7086 25.438 39.8222 25.5647 39.928 25.6929C40.4628 25.7263 40.988 25.8499 41.4811 26.0584C42.3471 26.433 43.0581 27.0908 43.496 27.9228C44.3397 27.4995 45.3039 27.3767 46.2276 27.5749C47.5598 27.8667 49.0133 28.825 49.2681 30.3185H49.2658Z" fill="#F3EEE7"></path><path d="M23 60H34.1674L23 54.4261V60Z" fill="#F3EEE7"></path><path d="M43.6312 29.6458C43.5303 29.7311 43.4091 29.7892 43.2791 29.8146C43.1492 29.8399 43.0148 29.8316 42.889 29.7904C42.7632 29.7492 42.6502 29.6766 42.5608 29.5794C42.4714 29.4823 42.4086 29.3639 42.3785 29.2357C42.2738 28.8498 42.0849 28.4915 41.8253 28.1863C41.5657 27.8811 41.2417 27.6364 40.8764 27.4696C40.5039 27.2748 40.0845 27.1861 39.6645 27.2132C39.2445 27.2403 38.8402 27.3822 38.4962 27.6232C38.0457 28.1245 37.7287 28.73 37.5742 29.3845C37.4198 30.0389 37.4327 30.7214 37.6119 31.3696C37.8262 32.3022 38.2331 33.1803 38.8068 33.9483C39.3804 34.7162 40.1083 35.3573 40.9443 35.8308C41.8948 35.9335 42.8564 35.8384 43.7679 35.5517C44.6795 35.265 45.5211 34.7929 46.2392 34.1654L46.2686 34.1377C46.7938 33.7144 47.2041 33.1669 47.4617 32.5453C47.7194 31.9237 47.8163 31.2479 47.7436 30.5795C47.6046 30.1845 47.3586 29.8354 47.0328 29.5706C46.707 29.3057 46.314 29.1354 45.8971 29.0783C45.5007 29.0016 45.0921 29.0126 44.7005 29.1107C44.3088 29.2088 43.9437 29.3915 43.6312 29.6458Z" fill="#F3EEE7"></path><path d="M37.9857 26.1084C37.6388 26.0129 37.2764 25.9865 36.9192 26.0309C36.5621 26.0752 36.2173 26.1893 35.9047 26.3667C35.5921 26.544 35.3179 26.7811 35.0978 27.0642C34.8777 27.3474 34.7161 27.671 34.6223 28.0165C34.5927 28.1447 34.5304 28.2633 34.4415 28.3607C34.3525 28.4582 34.2399 28.5313 34.1144 28.573C33.9888 28.6147 33.8546 28.6236 33.7246 28.5989C33.5946 28.5742 33.4732 28.5167 33.372 28.4319C33.0581 28.1778 32.6923 27.9949 32.3 27.8959C31.9077 27.797 31.4984 27.7844 31.1007 27.8591C30.6836 27.9168 30.2907 28.0877 29.9649 28.3529C29.6392 28.6181 29.3932 28.9674 29.2541 29.3625C28.9452 31.1916 30.2928 32.4954 30.7361 32.9239C31.456 33.5574 32.3008 34.0348 33.2165 34.3256C34.1323 34.6165 35.099 34.7144 36.0549 34.6131C36.3677 34.422 36.6684 34.212 36.9554 33.9843C36.5311 33.2693 36.2401 32.4839 36.0966 31.6661C35.7105 29.4831 36.153 27.7662 37.4095 26.5268C37.582 26.3624 37.7757 26.2217 37.9857 26.1084Z" fill="#F3EEE7"></path></svg> 