<?xml version="1.0" encoding="UTF-8"?> <svg xmlns="http://www.w3.org/2000/svg" width="76" height="77" viewBox="0 0 76 77" fill="none"><ellipse cx="38" cy="38.5" rx="38" ry="38.5" fill="#566048"></ellipse><path d="M58.5669 52.9384H55.1166V17.4283C55.1166 17.1918 54.9227 17 54.6835 17H24.4184C24.1792 17 23.9853 17.1918 23.9853 17.4283V20.7949L23.8334 20.8444L23.3034 19.2539C23.2675 19.1461 23.1896 19.0567 23.087 19.0056C22.9845 18.9545 22.8656 18.9457 22.7565 18.9812L22.1326 19.1845L21.7342 17.9893C21.483 17.2355 20.6586 16.8243 19.8959 17.0726L19.4504 17.2177C18.7022 17.4447 18.263 18.3056 18.5233 19.0355L18.9216 20.2307L18.2977 20.434C18.0705 20.5081 17.947 20.7502 18.0219 20.9749C18.2226 21.5768 23.101 36.217 23.4801 37.3541L23.9853 38.8702V55.7317C23.9853 58.0852 25.9216 60 28.3017 60H54.6835C57.0636 60 59 58.0853 59 55.7317V53.3667C59 53.1302 58.8061 52.9384 58.5669 52.9384ZM31.3764 47.3934L31.0014 44.796H34.8922V50.5263H29.097V48.5079L29.6125 48.34L29.8455 49.0392C29.9199 49.266 30.1713 49.3857 30.3924 49.312C30.6196 49.238 30.7431 48.9958 30.6682 48.7712L30.4352 48.0719L31.0832 47.8607C31.2825 47.7957 31.406 47.5988 31.3764 47.3934ZM29.8157 42.6442L30.0732 44.4282V44.4283L30.4676 47.1594L29.7532 47.3922C29.7529 47.3923 29.7526 47.3923 29.7523 47.3925L29.0379 47.6253L26.8475 43.6113L29.8157 42.6442ZM29.097 36.6397V34.7711H34.8922V40.5014H30.3839L29.097 36.6397ZM24.1674 36.6797L19.6457 23.1108L21.6685 22.4517L23.7205 28.6097C24.0222 29.5252 25.0006 30.0406 25.9125 29.8205L27.8035 35.495L24.1674 36.6797ZM23.0107 21.1125L21.8087 21.5041L21.8086 21.5041L19.3746 22.2972L18.9802 21.1136C19.8068 20.8443 21.7895 20.1982 22.6162 19.9288L23.0107 21.1125ZM24.8515 55.7317V41.4697L25.5552 43.5814C25.6138 43.7659 25.811 43.8967 26.0057 43.8726L28.2308 47.95V50.9546C28.2308 51.1912 28.4247 51.3829 28.6639 51.3829H35.3253C35.5645 51.3829 35.7584 51.1912 35.7584 50.9546V44.3677C35.7584 44.1311 35.5645 43.9394 35.3253 43.9394H30.8777L30.6496 42.36C30.8183 42.259 30.9011 42.0536 30.8368 41.8605L30.6693 41.358H35.3253C35.5645 41.358 35.7584 41.1663 35.7584 40.9297V34.3428C35.7584 34.1063 35.5645 33.9145 35.3253 33.9145H28.6639C28.4897 33.9145 28.3406 34.0168 28.2718 34.1634L26.6937 29.4276C27.2527 28.9547 27.4822 28.1516 27.2459 27.461L25.0582 20.8963C25.0236 20.7931 24.9479 20.7053 24.8515 20.654V17.8566H54.2504V52.9384H32.1844C31.9452 52.9384 31.7512 53.1302 31.7512 53.3667C31.7418 53.684 31.777 55.8982 31.7235 56.1566C31.5923 57.2578 30.8803 58.2551 29.8932 58.7571L28.2525 59.1431C26.3726 59.1169 24.8515 57.5967 24.8515 55.7317Z" fill="#F3EEE7"></path><path d="M33.1667 36.3756L31.5358 37.9884L30.8225 37.283C30.4059 36.8953 29.8172 37.4757 30.2099 37.8887L31.2295 38.8968C31.3987 39.0641 31.6728 39.0641 31.842 38.8968L33.7793 36.9813C34.1711 36.5696 33.5849 35.9874 33.1667 36.3756Z" fill="#F3EEE7"></path><path d="M37.7017 36.3809C37.7017 36.6175 37.8957 36.8092 38.1348 36.8092H50.438C50.6772 36.8092 50.8711 36.6175 50.8711 36.3809C50.8711 36.1444 50.6772 35.9527 50.438 35.9527H38.1348C37.8957 35.9527 37.7017 36.1444 37.7017 36.3809Z" fill="#F3EEE7"></path><path d="M50.438 38.4633H38.1348C37.8957 38.4633 37.7017 38.655 37.7017 38.8916C37.7017 39.1281 37.8957 39.3198 38.1348 39.3198H50.438C51.0075 39.302 51.0147 38.4839 50.438 38.4633Z" fill="#F3EEE7"></path><path d="M50.438 46.3472H38.1348C37.8957 46.3472 37.7017 46.5389 37.7017 46.7755C37.7017 47.012 37.8957 47.2038 38.1348 47.2038H50.438C51.0075 47.1859 51.0147 46.3678 50.438 46.3472Z" fill="#F3EEE7"></path><path d="M50.438 48.8578H38.1348C37.8957 48.8578 37.7017 49.0495 37.7017 49.286C37.7017 49.5226 37.8957 49.7143 38.1348 49.7143H50.438C51.0075 49.6965 51.0147 48.8784 50.438 48.8578Z" fill="#F3EEE7"></path><path d="M39.5509 32.0299C39.6617 32.0299 39.7726 31.9881 39.8572 31.9045L44.3126 27.4992C45.7028 26.1804 45.703 23.807 44.3126 22.4883C43.0134 21.2037 40.9565 21.1136 39.551 22.2181C38.1454 21.1136 36.0885 21.2037 34.7893 22.4883C33.3991 23.8073 33.399 26.1803 34.7893 27.4992L39.2447 31.9045C39.3292 31.9881 39.4401 32.0299 39.5509 32.0299Z" fill="#F3EEE7"></path></svg> 